<mxfile host="Electron" modified="2023-09-22T08:55:15.863Z" agent="Mozilla/5.0 (Windows NT 10.0; Win64; x64) AppleWebKit/537.36 (KHTML, like Gecko) draw.io/21.6.1 Chrome/112.0.5615.204 Electron/24.6.1 Safari/537.36" etag="6VgXKOyN9jTY3KptljED" version="21.6.1" type="device">
  <diagram name="Page-1" id="74e2e168-ea6b-b213-b513-2b3c1d86103e">
    <mxGraphModel dx="978" dy="571" grid="1" gridSize="10" guides="1" tooltips="1" connect="1" arrows="1" fold="1" page="1" pageScale="1" pageWidth="1100" pageHeight="850" background="none" math="0" shadow="0">
      <root>
        <mxCell id="0" />
        <mxCell id="1" parent="0" />
        <mxCell id="77e6c97f196da883-1" value="KF 流程" style="swimlane;html=1;childLayout=stackLayout;startSize=20;rounded=0;shadow=0;labelBackgroundColor=none;strokeWidth=1;fontFamily=Verdana;fontSize=8;align=center;" parent="1" vertex="1">
          <mxGeometry x="140" y="10" width="480" height="720" as="geometry">
            <mxRectangle x="140" y="40" width="80" height="20" as="alternateBounds" />
          </mxGeometry>
        </mxCell>
        <mxCell id="77e6c97f196da883-28" style="edgeStyle=orthogonalEdgeStyle;rounded=1;html=1;labelBackgroundColor=none;startArrow=none;startFill=0;startSize=5;endArrow=classicThin;endFill=1;endSize=5;jettySize=auto;orthogonalLoop=1;strokeWidth=1;fontFamily=Verdana;fontSize=8" parent="77e6c97f196da883-1" source="77e6c97f196da883-9" target="77e6c97f196da883-12" edge="1">
          <mxGeometry relative="1" as="geometry" />
        </mxCell>
        <mxCell id="AwJlrCnyRZFJX-mQ2P6--1" value="令牌、租户信息" style="edgeLabel;html=1;align=center;verticalAlign=middle;resizable=0;points=[];" parent="77e6c97f196da883-28" vertex="1" connectable="0">
          <mxGeometry x="-0.1727" relative="1" as="geometry">
            <mxPoint x="15" as="offset" />
          </mxGeometry>
        </mxCell>
        <mxCell id="AwJlrCnyRZFJX-mQ2P6--24" style="edgeStyle=orthogonalEdgeStyle;rounded=1;html=1;labelBackgroundColor=none;startArrow=none;startFill=0;startSize=5;endArrow=classicThin;endFill=1;endSize=5;jettySize=auto;orthogonalLoop=1;strokeWidth=1;fontFamily=Verdana;fontSize=8;exitX=0.5;exitY=1;exitDx=0;exitDy=0;entryX=0.5;entryY=0;entryDx=0;entryDy=0;" parent="77e6c97f196da883-1" source="77e6c97f196da883-12" target="AwJlrCnyRZFJX-mQ2P6--21" edge="1">
          <mxGeometry relative="1" as="geometry">
            <mxPoint x="400" y="210.97" as="sourcePoint" />
            <mxPoint x="620" y="210.97" as="targetPoint" />
            <Array as="points">
              <mxPoint x="400" y="170" />
              <mxPoint x="80" y="170" />
            </Array>
          </mxGeometry>
        </mxCell>
        <mxCell id="AwJlrCnyRZFJX-mQ2P6--25" style="edgeStyle=orthogonalEdgeStyle;rounded=1;html=1;labelBackgroundColor=none;startArrow=none;startFill=0;startSize=5;endArrow=classicThin;endFill=1;endSize=5;jettySize=auto;orthogonalLoop=1;strokeWidth=1;fontFamily=Verdana;fontSize=8;exitX=0.5;exitY=0;exitDx=0;exitDy=0;entryX=0.5;entryY=0;entryDx=0;entryDy=0;" parent="77e6c97f196da883-1" source="77e6c97f196da883-12" target="77e6c97f196da883-9" edge="1">
          <mxGeometry relative="1" as="geometry">
            <mxPoint x="400" y="80.97" as="sourcePoint" />
            <mxPoint x="80" y="120.97" as="targetPoint" />
            <Array as="points">
              <mxPoint x="400" y="100.97" />
              <mxPoint x="80" y="100.97" />
            </Array>
          </mxGeometry>
        </mxCell>
        <mxCell id="AwJlrCnyRZFJX-mQ2P6--26" value="失败" style="edgeLabel;html=1;align=center;verticalAlign=middle;resizable=0;points=[];" parent="AwJlrCnyRZFJX-mQ2P6--25" vertex="1" connectable="0">
          <mxGeometry x="-0.1792" y="-1" relative="1" as="geometry">
            <mxPoint x="-24" as="offset" />
          </mxGeometry>
        </mxCell>
        <mxCell id="AwJlrCnyRZFJX-mQ2P6--29" style="edgeStyle=orthogonalEdgeStyle;rounded=1;html=1;labelBackgroundColor=none;startArrow=none;startFill=0;startSize=5;endArrow=classicThin;endFill=1;endSize=5;jettySize=auto;orthogonalLoop=1;strokeWidth=1;fontFamily=Verdana;fontSize=8;entryX=0;entryY=0.5;entryDx=0;entryDy=0;exitX=0.5;exitY=1;exitDx=0;exitDy=0;" parent="77e6c97f196da883-1" source="77e6c97f196da883-12" target="t7xmqVSbrX6ZLOEpQ881-9" edge="1">
          <mxGeometry relative="1" as="geometry">
            <mxPoint x="460" y="200.97" as="sourcePoint" />
            <mxPoint x="80" y="345.97" as="targetPoint" />
            <Array as="points">
              <mxPoint x="400" y="170" />
              <mxPoint x="10" y="170" />
              <mxPoint x="10" y="340" />
            </Array>
          </mxGeometry>
        </mxCell>
        <mxCell id="AwJlrCnyRZFJX-mQ2P6--12" style="edgeStyle=orthogonalEdgeStyle;rounded=1;html=1;labelBackgroundColor=none;startArrow=none;startFill=0;startSize=5;endArrow=classicThin;endFill=1;endSize=5;jettySize=auto;orthogonalLoop=1;strokeWidth=1;fontFamily=Verdana;fontSize=8;exitX=1;exitY=0.5;exitDx=0;exitDy=0;entryX=0;entryY=0.5;entryDx=0;entryDy=0;" parent="77e6c97f196da883-1" source="77e6c97f196da883-10" target="AwJlrCnyRZFJX-mQ2P6--8" edge="1">
          <mxGeometry relative="1" as="geometry">
            <mxPoint x="130" y="529.69" as="sourcePoint" />
            <mxPoint x="350" y="529.69" as="targetPoint" />
          </mxGeometry>
        </mxCell>
        <mxCell id="AwJlrCnyRZFJX-mQ2P6--13" value="消息文本" style="edgeLabel;html=1;align=center;verticalAlign=middle;resizable=0;points=[];" parent="AwJlrCnyRZFJX-mQ2P6--12" vertex="1" connectable="0">
          <mxGeometry x="-0.1727" relative="1" as="geometry">
            <mxPoint x="15" as="offset" />
          </mxGeometry>
        </mxCell>
        <mxCell id="AwJlrCnyRZFJX-mQ2P6--18" style="edgeStyle=orthogonalEdgeStyle;rounded=1;html=1;labelBackgroundColor=none;startArrow=none;startFill=0;startSize=5;endArrow=classicThin;endFill=1;endSize=5;jettySize=auto;orthogonalLoop=1;strokeWidth=1;fontFamily=Verdana;fontSize=8;exitX=0.5;exitY=0;exitDx=0;exitDy=0;entryX=0.5;entryY=0;entryDx=0;entryDy=0;" parent="77e6c97f196da883-1" source="AwJlrCnyRZFJX-mQ2P6--8" target="77e6c97f196da883-10" edge="1">
          <mxGeometry relative="1" as="geometry">
            <mxPoint x="340" y="570.03" as="sourcePoint" />
            <mxPoint x="80" y="510.03" as="targetPoint" />
            <Array as="points">
              <mxPoint x="400" y="500.03" />
              <mxPoint x="80" y="500.03" />
            </Array>
          </mxGeometry>
        </mxCell>
        <mxCell id="AwJlrCnyRZFJX-mQ2P6--19" value="ACK" style="edgeLabel;html=1;align=center;verticalAlign=middle;resizable=0;points=[];" parent="AwJlrCnyRZFJX-mQ2P6--18" vertex="1" connectable="0">
          <mxGeometry x="0.0302" relative="1" as="geometry">
            <mxPoint as="offset" />
          </mxGeometry>
        </mxCell>
        <mxCell id="AwJlrCnyRZFJX-mQ2P6--38" style="edgeStyle=orthogonalEdgeStyle;rounded=1;html=1;labelBackgroundColor=none;startArrow=none;startFill=0;startSize=5;endArrow=classicThin;endFill=1;endSize=5;jettySize=auto;orthogonalLoop=1;strokeWidth=1;fontFamily=Verdana;fontSize=8;exitX=1;exitY=0.5;exitDx=0;exitDy=0;entryX=0;entryY=0.5;entryDx=0;entryDy=0;" parent="77e6c97f196da883-1" source="AwJlrCnyRZFJX-mQ2P6--36" target="AwJlrCnyRZFJX-mQ2P6--37" edge="1">
          <mxGeometry relative="1" as="geometry">
            <mxPoint x="140" y="459.58000000000004" as="sourcePoint" />
            <mxPoint x="360" y="459.58000000000004" as="targetPoint" />
          </mxGeometry>
        </mxCell>
        <mxCell id="AwJlrCnyRZFJX-mQ2P6--39" value="base64 或 文件流" style="edgeLabel;html=1;align=center;verticalAlign=middle;resizable=0;points=[];" parent="AwJlrCnyRZFJX-mQ2P6--38" vertex="1" connectable="0">
          <mxGeometry x="-0.1727" relative="1" as="geometry">
            <mxPoint x="15" as="offset" />
          </mxGeometry>
        </mxCell>
        <mxCell id="t7xmqVSbrX6ZLOEpQ881-1" style="edgeStyle=orthogonalEdgeStyle;rounded=1;html=1;labelBackgroundColor=none;startArrow=none;startFill=0;startSize=5;endArrow=classicThin;endFill=1;endSize=5;jettySize=auto;orthogonalLoop=1;strokeWidth=1;fontFamily=Verdana;fontSize=8;exitX=0.5;exitY=0;exitDx=0;exitDy=0;entryX=0.5;entryY=0;entryDx=0;entryDy=0;" parent="77e6c97f196da883-1" source="AwJlrCnyRZFJX-mQ2P6--37" target="AwJlrCnyRZFJX-mQ2P6--36" edge="1">
          <mxGeometry relative="1" as="geometry">
            <mxPoint x="400" y="420" as="sourcePoint" />
            <mxPoint x="80" y="420" as="targetPoint" />
            <Array as="points">
              <mxPoint x="400" y="390" />
              <mxPoint x="80" y="390" />
            </Array>
          </mxGeometry>
        </mxCell>
        <mxCell id="t7xmqVSbrX6ZLOEpQ881-2" value="图片URL" style="edgeLabel;html=1;align=center;verticalAlign=middle;resizable=0;points=[];" parent="t7xmqVSbrX6ZLOEpQ881-1" vertex="1" connectable="0">
          <mxGeometry x="0.0302" relative="1" as="geometry">
            <mxPoint as="offset" />
          </mxGeometry>
        </mxCell>
        <mxCell id="t7xmqVSbrX6ZLOEpQ881-7" style="edgeStyle=orthogonalEdgeStyle;rounded=1;html=1;labelBackgroundColor=none;startArrow=none;startFill=0;startSize=5;endArrow=classicThin;endFill=1;endSize=5;jettySize=auto;orthogonalLoop=1;strokeWidth=1;fontFamily=Verdana;fontSize=8;exitX=0;exitY=0.5;exitDx=0;exitDy=0;entryX=1;entryY=0.5;entryDx=0;entryDy=0;" parent="77e6c97f196da883-1" source="t7xmqVSbrX6ZLOEpQ881-6" target="t7xmqVSbrX6ZLOEpQ881-5" edge="1">
          <mxGeometry relative="1" as="geometry">
            <mxPoint x="130" y="670.03" as="sourcePoint" />
            <mxPoint x="350" y="670.03" as="targetPoint" />
          </mxGeometry>
        </mxCell>
        <mxCell id="t7xmqVSbrX6ZLOEpQ881-8" value="消息文本" style="edgeLabel;html=1;align=center;verticalAlign=middle;resizable=0;points=[];" parent="t7xmqVSbrX6ZLOEpQ881-7" vertex="1" connectable="0">
          <mxGeometry x="-0.1727" relative="1" as="geometry">
            <mxPoint x="-19" as="offset" />
          </mxGeometry>
        </mxCell>
        <mxCell id="77e6c97f196da883-2" value="前端" style="swimlane;html=1;startSize=20;" parent="77e6c97f196da883-1" vertex="1">
          <mxGeometry y="20" width="160" height="700" as="geometry">
            <mxRectangle y="20" width="40" height="730" as="alternateBounds" />
          </mxGeometry>
        </mxCell>
        <mxCell id="77e6c97f196da883-9" value="请求连接" style="rounded=1;whiteSpace=wrap;html=1;shadow=0;labelBackgroundColor=none;strokeWidth=1;fontFamily=Verdana;fontSize=8;align=center;" parent="77e6c97f196da883-2" vertex="1">
          <mxGeometry x="30" y="110.97" width="100" height="20" as="geometry" />
        </mxCell>
        <mxCell id="77e6c97f196da883-10" value="发送消息" style="rounded=1;whiteSpace=wrap;html=1;shadow=0;labelBackgroundColor=none;strokeWidth=1;fontFamily=Verdana;fontSize=8;align=center;" parent="77e6c97f196da883-2" vertex="1">
          <mxGeometry x="30" y="510.03" width="100" height="20" as="geometry" />
        </mxCell>
        <mxCell id="AwJlrCnyRZFJX-mQ2P6--20" value="(&lt;font color=&quot;#ff0000&quot;&gt;SSE&lt;/font&gt;)取未读消息数量" style="rounded=1;whiteSpace=wrap;html=1;shadow=0;labelBackgroundColor=none;strokeWidth=1;fontFamily=Verdana;fontSize=8;align=center;fillColor=#fff2cc;strokeColor=#d6b656;" parent="77e6c97f196da883-2" vertex="1">
          <mxGeometry x="30" y="40" width="100" height="20" as="geometry" />
        </mxCell>
        <mxCell id="AwJlrCnyRZFJX-mQ2P6--21" value="拉取最近聊天历史" style="rounded=1;whiteSpace=wrap;html=1;shadow=0;labelBackgroundColor=none;strokeWidth=1;fontFamily=Verdana;fontSize=8;align=center;" parent="77e6c97f196da883-2" vertex="1">
          <mxGeometry x="30" y="180" width="100" height="20" as="geometry" />
        </mxCell>
        <mxCell id="AwJlrCnyRZFJX-mQ2P6--36" value="上传图片" style="rounded=1;whiteSpace=wrap;html=1;shadow=0;labelBackgroundColor=none;strokeWidth=1;fontFamily=Verdana;fontSize=8;align=center;" parent="77e6c97f196da883-2" vertex="1">
          <mxGeometry x="30" y="410" width="100" height="20.03" as="geometry" />
        </mxCell>
        <mxCell id="t7xmqVSbrX6ZLOEpQ881-5" value="在线接收消息" style="rounded=1;whiteSpace=wrap;html=1;shadow=0;labelBackgroundColor=none;strokeWidth=1;fontFamily=Verdana;fontSize=8;align=center;" parent="77e6c97f196da883-2" vertex="1">
          <mxGeometry x="30" y="580.03" width="100" height="20" as="geometry" />
        </mxCell>
        <mxCell id="t7xmqVSbrX6ZLOEpQ881-9" value="(&lt;font style=&quot;border-color: var(--border-color);&quot; color=&quot;#ff0000&quot;&gt;SSE&lt;/font&gt;)聊天用户名单" style="rounded=1;whiteSpace=wrap;html=1;shadow=0;labelBackgroundColor=none;strokeWidth=1;fontFamily=Verdana;fontSize=8;align=center;" parent="77e6c97f196da883-2" vertex="1">
          <mxGeometry x="30" y="310" width="100" height="20" as="geometry" />
        </mxCell>
        <mxCell id="t7xmqVSbrX6ZLOEpQ881-12" value="订阅消息" style="rounded=1;whiteSpace=wrap;html=1;shadow=0;labelBackgroundColor=none;strokeWidth=1;fontFamily=Verdana;fontSize=8;align=center;" parent="77e6c97f196da883-2" vertex="1">
          <mxGeometry x="30" y="250" width="100" height="20" as="geometry" />
        </mxCell>
        <mxCell id="t7xmqVSbrX6ZLOEpQ881-13" style="edgeStyle=orthogonalEdgeStyle;rounded=1;html=1;labelBackgroundColor=none;startArrow=none;startFill=0;startSize=5;endArrow=classicThin;endFill=1;endSize=5;jettySize=auto;orthogonalLoop=1;strokeWidth=1;fontFamily=Verdana;fontSize=8;exitX=0.5;exitY=1;exitDx=0;exitDy=0;entryX=0.5;entryY=0;entryDx=0;entryDy=0;" parent="77e6c97f196da883-2" source="AwJlrCnyRZFJX-mQ2P6--21" target="t7xmqVSbrX6ZLOEpQ881-12" edge="1">
          <mxGeometry relative="1" as="geometry">
            <mxPoint x="500" y="330.03" as="sourcePoint" />
            <mxPoint x="130" y="330" as="targetPoint" />
            <Array as="points">
              <mxPoint x="80" y="220" />
              <mxPoint x="80" y="220" />
            </Array>
          </mxGeometry>
        </mxCell>
        <mxCell id="t7xmqVSbrX6ZLOEpQ881-15" value="检测到未读消息被读取" style="rounded=1;whiteSpace=wrap;html=1;shadow=0;labelBackgroundColor=none;strokeWidth=1;fontFamily=Verdana;fontSize=8;align=center;" parent="77e6c97f196da883-2" vertex="1">
          <mxGeometry x="30" y="660" width="100" height="20" as="geometry" />
        </mxCell>
        <mxCell id="AwJlrCnyRZFJX-mQ2P6--22" style="edgeStyle=orthogonalEdgeStyle;rounded=1;html=1;labelBackgroundColor=none;startArrow=none;startFill=0;startSize=5;endArrow=classicThin;endFill=1;endSize=5;jettySize=auto;orthogonalLoop=1;strokeWidth=1;fontFamily=Verdana;fontSize=8;exitX=1;exitY=0.5;exitDx=0;exitDy=0;entryX=0;entryY=0.5;entryDx=0;entryDy=0;" parent="77e6c97f196da883-1" source="t7xmqVSbrX6ZLOEpQ881-15" target="AwJlrCnyRZFJX-mQ2P6--9" edge="1">
          <mxGeometry relative="1" as="geometry">
            <mxPoint x="140" y="689.6600000000001" as="sourcePoint" />
            <mxPoint x="360" y="689.675" as="targetPoint" />
          </mxGeometry>
        </mxCell>
        <mxCell id="t7xmqVSbrX6ZLOEpQ881-11" value="已读消息" style="edgeLabel;html=1;align=center;verticalAlign=middle;resizable=0;points=[];" parent="AwJlrCnyRZFJX-mQ2P6--22" vertex="1" connectable="0">
          <mxGeometry x="-0.195" y="-3" relative="1" as="geometry">
            <mxPoint x="22" y="-3" as="offset" />
          </mxGeometry>
        </mxCell>
        <mxCell id="t7xmqVSbrX6ZLOEpQ881-16" style="edgeStyle=orthogonalEdgeStyle;rounded=1;html=1;labelBackgroundColor=none;startArrow=none;startFill=0;startSize=5;endArrow=classicThin;endFill=1;endSize=5;jettySize=auto;orthogonalLoop=1;strokeWidth=1;fontFamily=Verdana;fontSize=8;exitX=0.5;exitY=0;exitDx=0;exitDy=0;entryX=0.5;entryY=0;entryDx=0;entryDy=0;" parent="77e6c97f196da883-1" source="AwJlrCnyRZFJX-mQ2P6--9" target="t7xmqVSbrX6ZLOEpQ881-15" edge="1">
          <mxGeometry relative="1" as="geometry">
            <mxPoint x="400" y="669.97" as="sourcePoint" />
            <mxPoint x="80" y="670" as="targetPoint" />
            <Array as="points">
              <mxPoint x="400" y="660" />
              <mxPoint x="80" y="660" />
            </Array>
          </mxGeometry>
        </mxCell>
        <mxCell id="t7xmqVSbrX6ZLOEpQ881-17" value="ACK" style="edgeLabel;html=1;align=center;verticalAlign=middle;resizable=0;points=[];" parent="t7xmqVSbrX6ZLOEpQ881-16" vertex="1" connectable="0">
          <mxGeometry x="0.0302" relative="1" as="geometry">
            <mxPoint as="offset" />
          </mxGeometry>
        </mxCell>
        <mxCell id="77e6c97f196da883-3" value="" style="swimlane;html=1;startSize=20;" parent="77e6c97f196da883-1" vertex="1">
          <mxGeometry x="160" y="20" width="160" height="700" as="geometry" />
        </mxCell>
        <mxCell id="77e6c97f196da883-4" value="后端" style="swimlane;html=1;startSize=20;" parent="77e6c97f196da883-1" vertex="1">
          <mxGeometry x="320" y="20" width="160" height="700" as="geometry" />
        </mxCell>
        <mxCell id="77e6c97f196da883-12" value="鉴权" style="rounded=1;whiteSpace=wrap;html=1;shadow=0;labelBackgroundColor=none;strokeWidth=1;fontFamily=Verdana;fontSize=8;align=center;fillColor=#d5e8d4;strokeColor=#82b366;" parent="77e6c97f196da883-4" vertex="1">
          <mxGeometry x="30" y="110.97" width="100" height="20" as="geometry" />
        </mxCell>
        <mxCell id="AwJlrCnyRZFJX-mQ2P6--8" value="消息落地" style="rounded=1;whiteSpace=wrap;html=1;shadow=0;labelBackgroundColor=none;strokeWidth=1;fontFamily=Verdana;fontSize=8;align=center;fillColor=#d5e8d4;strokeColor=#82b366;" parent="77e6c97f196da883-4" vertex="1">
          <mxGeometry x="30" y="510.03" width="100" height="20" as="geometry" />
        </mxCell>
        <mxCell id="AwJlrCnyRZFJX-mQ2P6--9" value="设置消息已读" style="rounded=1;whiteSpace=wrap;html=1;shadow=0;labelBackgroundColor=none;strokeWidth=1;fontFamily=Verdana;fontSize=8;align=center;fillColor=#dae8fc;strokeColor=#6c8ebf;" parent="77e6c97f196da883-4" vertex="1">
          <mxGeometry x="30" y="660" width="100" height="19.97" as="geometry" />
        </mxCell>
        <mxCell id="AwJlrCnyRZFJX-mQ2P6--37" value="存储图片" style="rounded=1;whiteSpace=wrap;html=1;shadow=0;labelBackgroundColor=none;strokeWidth=1;fontFamily=Verdana;fontSize=8;align=center;fillColor=#d5e8d4;strokeColor=#82b366;" parent="77e6c97f196da883-4" vertex="1">
          <mxGeometry x="30" y="410" width="100" height="20.03" as="geometry" />
        </mxCell>
        <mxCell id="uSbHLlg47XLP1jI0RTrE-2" style="edgeStyle=orthogonalEdgeStyle;rounded=1;html=1;labelBackgroundColor=none;startArrow=none;startFill=0;startSize=5;endArrow=classicThin;endFill=1;endSize=5;jettySize=auto;orthogonalLoop=1;strokeWidth=1;fontFamily=Verdana;fontSize=8;exitX=0.5;exitY=1;exitDx=0;exitDy=0;entryX=1;entryY=0.5;entryDx=0;entryDy=0;" parent="77e6c97f196da883-4" source="77e6c97f196da883-12" target="t7xmqVSbrX6ZLOEpQ881-10" edge="1">
          <mxGeometry relative="1" as="geometry">
            <mxPoint x="180" y="140.97" as="sourcePoint" />
            <mxPoint x="130" y="338.4699999999999" as="targetPoint" />
            <Array as="points">
              <mxPoint x="80" y="150" />
              <mxPoint x="150" y="150" />
              <mxPoint x="150" y="260" />
            </Array>
          </mxGeometry>
        </mxCell>
        <mxCell id="t7xmqVSbrX6ZLOEpQ881-6" value="消息推送至在线用户" style="rounded=1;whiteSpace=wrap;html=1;shadow=0;labelBackgroundColor=none;strokeWidth=1;fontFamily=Verdana;fontSize=8;align=center;fillColor=#d5e8d4;strokeColor=#82b366;" parent="77e6c97f196da883-4" vertex="1">
          <mxGeometry x="30" y="580.03" width="100" height="20" as="geometry" />
        </mxCell>
        <mxCell id="t7xmqVSbrX6ZLOEpQ881-10" value="登记连接会话" style="rounded=1;whiteSpace=wrap;html=1;shadow=0;labelBackgroundColor=none;strokeWidth=1;fontFamily=Verdana;fontSize=8;align=center;fillColor=#d5e8d4;strokeColor=#82b366;" parent="77e6c97f196da883-4" vertex="1">
          <mxGeometry x="30" y="250" width="100" height="20" as="geometry" />
        </mxCell>
        <mxCell id="t7xmqVSbrX6ZLOEpQ881-20" value="消息历史" style="rounded=1;whiteSpace=wrap;html=1;shadow=0;labelBackgroundColor=none;strokeWidth=1;fontFamily=Verdana;fontSize=8;align=center;fillColor=#d5e8d4;strokeColor=#82b366;" parent="77e6c97f196da883-4" vertex="1">
          <mxGeometry x="30" y="180" width="100" height="20" as="geometry" />
        </mxCell>
        <mxCell id="t7xmqVSbrX6ZLOEpQ881-21" value="用户名单和在线状况" style="rounded=1;whiteSpace=wrap;html=1;shadow=0;labelBackgroundColor=none;strokeWidth=1;fontFamily=Verdana;fontSize=8;align=center;fillColor=#d5e8d4;strokeColor=#82b366;" parent="77e6c97f196da883-4" vertex="1">
          <mxGeometry x="30" y="310" width="100" height="20" as="geometry" />
        </mxCell>
        <mxCell id="o-qbwXzgOp_71Mc6V2xB-12" value="未读消息数目" style="rounded=1;whiteSpace=wrap;html=1;shadow=0;labelBackgroundColor=none;strokeWidth=1;fontFamily=Verdana;fontSize=8;align=center;fillColor=#d5e8d4;strokeColor=#82b366;" parent="77e6c97f196da883-4" vertex="1">
          <mxGeometry x="30" y="40" width="100" height="20" as="geometry" />
        </mxCell>
        <mxCell id="t7xmqVSbrX6ZLOEpQ881-22" style="edgeStyle=orthogonalEdgeStyle;rounded=1;html=1;labelBackgroundColor=none;startArrow=none;startFill=0;startSize=5;endArrow=classicThin;endFill=1;endSize=5;jettySize=auto;orthogonalLoop=1;strokeWidth=1;fontFamily=Verdana;fontSize=8;exitX=0;exitY=0.5;exitDx=0;exitDy=0;entryX=1;entryY=0.5;entryDx=0;entryDy=0;" parent="77e6c97f196da883-1" source="t7xmqVSbrX6ZLOEpQ881-20" target="AwJlrCnyRZFJX-mQ2P6--21" edge="1">
          <mxGeometry relative="1" as="geometry">
            <mxPoint x="410" y="141" as="sourcePoint" />
            <mxPoint x="90" y="141" as="targetPoint" />
            <Array as="points">
              <mxPoint x="240" y="210" />
              <mxPoint x="240" y="210" />
            </Array>
          </mxGeometry>
        </mxCell>
        <mxCell id="t7xmqVSbrX6ZLOEpQ881-24" style="edgeStyle=orthogonalEdgeStyle;rounded=1;html=1;labelBackgroundColor=none;startArrow=none;startFill=0;startSize=5;endArrow=classicThin;endFill=1;endSize=5;jettySize=auto;orthogonalLoop=1;strokeWidth=1;fontFamily=Verdana;fontSize=8;exitX=0;exitY=0.5;exitDx=0;exitDy=0;entryX=1;entryY=0.5;entryDx=0;entryDy=0;" parent="77e6c97f196da883-1" source="t7xmqVSbrX6ZLOEpQ881-21" target="t7xmqVSbrX6ZLOEpQ881-9" edge="1">
          <mxGeometry relative="1" as="geometry">
            <mxPoint x="300" y="280" as="sourcePoint" />
            <mxPoint x="190" y="280" as="targetPoint" />
            <Array as="points" />
          </mxGeometry>
        </mxCell>
        <mxCell id="o-qbwXzgOp_71Mc6V2xB-13" style="edgeStyle=orthogonalEdgeStyle;rounded=1;html=1;labelBackgroundColor=none;startArrow=none;startFill=0;startSize=5;endArrow=classicThin;endFill=1;endSize=5;jettySize=auto;orthogonalLoop=1;strokeWidth=1;fontFamily=Verdana;fontSize=8;exitX=0;exitY=0.5;exitDx=0;exitDy=0;entryX=1;entryY=0.5;entryDx=0;entryDy=0;" parent="77e6c97f196da883-1" source="o-qbwXzgOp_71Mc6V2xB-12" target="AwJlrCnyRZFJX-mQ2P6--20" edge="1">
          <mxGeometry relative="1" as="geometry">
            <mxPoint x="360" y="350" as="sourcePoint" />
            <mxPoint x="140" y="350" as="targetPoint" />
            <Array as="points" />
          </mxGeometry>
        </mxCell>
      </root>
    </mxGraphModel>
  </diagram>
</mxfile>
